<?xml version="1.0" encoding="UTF-8"?>
<svg xmlns="http://www.w3.org/2000/svg" viewBox="0 0 201.56 201.56">
  <defs>
    <style>
      .cls-1 {
        stroke: #0077b6;
      }

      .cls-1, .cls-2 {
        fill: none;
      }

      .cls-1, .cls-2, .cls-3 {
        stroke-miterlimit: 10;
      }

      .cls-4 {
        fill: #caf0f8;
      }

      .cls-2 {
        stroke: #48cae4;
      }

      .cls-3 {
        fill: #023e8a;
        stroke: #000;
      }
    </style>
  </defs>
  <g id="Layer_2" data-name="Layer 2">
    <circle class="cls-3" cx="100.78" cy="100.78" r="100.28"/>
    <path class="cls-1" d="m106.77,100.78l39.43,48.15c-12.28,11.58-28.54,18.04-45.41,18.04-36.31,0-66.19-29.88-66.19-66.19s29.88-66.19,66.19-66.19,66.19,29.88,66.19,66.19h-60.2Z"/>
  </g>
  <g id="Layer_1" data-name="Layer 1">
    <g>
      <path class="cls-4" d="m79.14,99.91h3.24l2.96,10.31c.67,2.28,1.13,4.21,1.82,6.47h.12c.69-2.26,1.18-4.19,1.82-6.47l2.95-10.31h3.11l-6.2,19.8h-3.58l-6.25-19.8Z"/>
      <path class="cls-4" d="m105.45,107.34h-6.6v-2.4h9.62v14.77h-3.01v-12.37Zm-.98-7.43c0-1.27.95-2.15,2.24-2.15s2.24.88,2.24,2.15-.95,2.14-2.24,2.14-2.24-.84-2.24-2.14Z"/>
      <path class="cls-4" d="m118.5,104.94h2.49l.27,3.43h.07c1.52-2.41,3.8-3.79,6.44-3.79,1.14,0,2,.17,2.9.6l-.66,2.56c-1.01-.32-1.57-.47-2.7-.47-2.12,0-4.16,1.08-5.79,4.06v8.38h-3.01v-14.77Z"/>
      <path class="cls-4" d="m134.19,112.34c0-4.94,3.46-7.77,7.36-7.77s7.36,2.83,7.36,7.77-3.46,7.72-7.36,7.72-7.36-2.83-7.36-7.72Zm11.63,0c0-3.18-1.66-5.3-4.27-5.3s-4.27,2.12-4.27,5.3,1.66,5.25,4.27,5.25,4.27-2.09,4.27-5.25Z"/>
    </g>
    <path class="cls-2" d="m44.43,125.06h123.71l-15.7-54.59-108.01,54.59Z"/>
    <path class="cls-2" d="m44.43,114.75l21.72-81.17,81.21,32.77-102.93,48.4Z"/>
    <g>
      <path class="cls-4" d="m117.46,75.62l-3.3,1.47-13.54-15,2.86-1.28,6.8,7.92c1.49,1.76,2.7,3.27,4.24,4.99l.11-.05c-.26-2.29-.59-4.19-.88-6.49l-1.34-10.36,2.99-1.33,2.07,20.12Z"/>
      <path class="cls-4" d="m90.81,68.73c-1.19.53-2.4.18-2.91-.97-.5-1.13.02-2.29,1.22-2.83,1.19-.53,2.41-.15,2.92.98.51,1.15-.03,2.28-1.22,2.82Zm8.15,15.14l-2.78,1.24-5.84-13.09,8.86-3.95.95,2.13-6.08,2.71,4.89,10.96Z"/>
      <path class="cls-4" d="m86.93,89.24l-2.77,1.24-3.32-7.43c-2.69-1.97-4.99-2.09-6.94-1.22-1.05.47-1.5.83-2.3,1.53l-1.62-2c.65-.75,1.38-1.26,2.43-1.73,2.43-1.08,5.07-.79,7.43.71l.07-.03-1.11-3.15,2.3-1.02,5.84,13.09Z"/>
      <path class="cls-4" d="m65.82,99.04c-3.59,1.6-7.9.52-9.83-3.82-1.96-4.38.12-8.31,3.71-9.91,3.59-1.6,7.9-.52,9.85,3.87,1.94,4.34-.14,8.27-3.72,9.87Zm-.98-2.19c2.41-1.07,3.11-3.61,1.86-6.41-1.26-2.82-3.62-4.01-6.03-2.94-2.41,1.07-3.1,3.63-1.84,6.45,1.25,2.8,3.6,3.97,6.01,2.9Z"/>
    </g>
  </g>
</svg>